<?xml version="1.0" encoding="UTF-8" standalone="no"?>
<svg
   xmlns:dc="http://purl.org/dc/elements/1.1/"
   xmlns:cc="http://creativecommons.org/ns#"
   xmlns:rdf="http://www.w3.org/1999/02/22-rdf-syntax-ns#"
   xmlns:svg="http://www.w3.org/2000/svg"
   xmlns="http://www.w3.org/2000/svg"
   xmlns:sodipodi="http://sodipodi.sourceforge.net/DTD/sodipodi-0.dtd"
   xmlns:inkscape="http://www.inkscape.org/namespaces/inkscape"
   height="67px"
   id="Layer_1"
   style="enable-background:new 0 0 67 67;"
   version="1.1"
   viewBox="0 0 67 67"
   width="67px"
   xml:space="preserve"
   sodipodi:docname="fb.svg"
   inkscape:version="0.92+devel unknown"><metadata
     id="metadata17"><rdf:RDF><cc:Work
         rdf:about=""><dc:format>image/svg+xml</dc:format><dc:type
           rdf:resource="http://purl.org/dc/dcmitype/StillImage" /><dc:title></dc:title></cc:Work></rdf:RDF></metadata><defs
     id="defs15" /><sodipodi:namedview
     pagecolor="#ffffff"
     bordercolor="#666666"
     inkscape:document-rotation="0"
     borderopacity="1"
     objecttolerance="10"
     gridtolerance="10"
     guidetolerance="10"
     inkscape:pageopacity="0"
     inkscape:pageshadow="2"
     inkscape:window-width="1366"
     inkscape:window-height="708"
     id="namedview13"
     showgrid="false"
     inkscape:zoom="5.4563314"
     inkscape:cx="27.84834"
     inkscape:cy="31.641054"
     inkscape:window-x="0"
     inkscape:window-y="0"
     inkscape:window-maximized="1"
     inkscape:current-layer="Layer_1" /><g
     id="g23"
     transform="translate(-0.5,-0.5)"><path
       id="path10"
       style="clip-rule:evenodd;fill:#3a589b;fill-rule:evenodd"
       d="m 29.765,50.32 h 6.744 V 33.998 h 4.499 l 0.596,-5.624 h -5.095 l 0.007,-2.816 c 0,-1.466 0.14,-2.253 2.244,-2.253 h 2.812 V 17.68 h -4.5 c -5.405,0 -7.307,2.729 -7.307,7.317 v 3.377 h -3.369 v 5.625 h 3.369 z M 34,64 C 17.432,64 4,50.568 4,34 4,17.431 17.432,4 34,4 50.568,4 64,17.431 64,34 64,50.568 50.568,64 34,64 Z"
       inkscape:connector-curvature="0" /><path
       inkscape:connector-curvature="0"
       id="path19"
       d="m 29.767698,42.09207 v -8.16441 h -1.684719 -1.68472 v -2.72147 -2.72147 h 1.664275 1.664275 l 0.08443,-2.559478 c 0.04643,-1.407713 0.167662,-2.945654 0.269394,-3.417648 0.380566,-1.765675 1.457828,-3.2588 2.831089,-3.923994 1.354804,-0.656253 2.008995,-0.755049 5.44157,-0.821786 l 3.207447,-0.06236 v 2.792036 2.792035 l -2.1357,0.04112 -2.135698,0.04112 -0.358982,0.358988 -0.358982,0.358989 -0.04093,2.200489 -0.04093,2.20049 h 2.532373 2.532373 l -0.05966,0.356383 c -0.03281,0.19601 -0.150207,1.289458 -0.260876,2.429883 -0.11067,1.140426 -0.229269,2.204715 -0.263555,2.365088 -0.06168,0.28849 -0.0857,0.291586 -2.262964,0.291586 h -2.200626 v 8.16441 8.16441 h -3.369439 -3.369439 z"
       style="fill:#ffffff;stroke-width:0.04898034" /></g></svg>