<?xml version="1.0" encoding="UTF-8" standalone="no"?>
<!-- Created with Inkscape (http://www.inkscape.org/) -->

<svg
   xmlns:dc="http://purl.org/dc/elements/1.1/"
   xmlns:cc="http://creativecommons.org/ns#"
   xmlns:rdf="http://www.w3.org/1999/02/22-rdf-syntax-ns#"
   xmlns:svg="http://www.w3.org/2000/svg"
   xmlns="http://www.w3.org/2000/svg"
   xmlns:sodipodi="http://sodipodi.sourceforge.net/DTD/sodipodi-0.dtd"
   xmlns:inkscape="http://www.inkscape.org/namespaces/inkscape"
   width="86.27404mm"
   height="19.566454mm"
   viewBox="0 0 86.27404 19.566454"
   version="1.1"
   id="svg4927"
   inkscape:version="0.92.2 (5c3e80d, 2017-08-06)"
   sodipodi:docname="ipn_logo-slogan.svg"
   inkscape:export-filename="/home/kolt/Documents/IPN/5S/IngSoft/SAES/public_html/img/ipn_logo-slogan.png"
   inkscape:export-xdpi="160"
   inkscape:export-ydpi="160">
  <defs
     id="defs4921" />
  <sodipodi:namedview
     id="base"
     pagecolor="#ffffff"
     bordercolor="#666666"
     borderopacity="1.0"
     inkscape:pageopacity="0.0"
     inkscape:pageshadow="2"
     inkscape:zoom="0.35"
     inkscape:cx="181.87685"
     inkscape:cy="-104.05081"
     inkscape:document-units="mm"
     inkscape:current-layer="layer1"
     inkscape:document-rotation="0"
     showgrid="false"
     fit-margin-top="0"
     fit-margin-left="0"
     fit-margin-right="0"
     fit-margin-bottom="0"
     inkscape:window-width="1366"
     inkscape:window-height="704"
     inkscape:window-x="0"
     inkscape:window-y="27"
     inkscape:window-maximized="1" />
  <metadata
     id="metadata4924">
    <rdf:RDF>
      <cc:Work
         rdf:about="">
        <dc:format>image/svg+xml</dc:format>
        <dc:type
           rdf:resource="http://purl.org/dc/dcmitype/StillImage" />
        <dc:title></dc:title>
      </cc:Work>
    </rdf:RDF>
  </metadata>
  <g
     inkscape:label="Layer 1"
     inkscape:groupmode="layer"
     id="layer1"
     transform="translate(-50.152227,-101.73677)">
    <g
       id="g8270"
       transform="matrix(1.4285714,0,0,1.4285714,41.458112,-50.992536)">
      <text
         id="text5346"
         y="113.01976"
         x="17.033945"
         style="font-size:17.78000069px;font-family:'Soberana Texto';-inkscape-font-specification:'Soberana Texto';fill:#8a8d8f;fill-opacity:1;stroke-width:0.18520834"
         xml:space="preserve"><tspan
           style="font-style:normal;font-variant:normal;font-weight:bold;font-stretch:normal;font-size:3.45722222px;font-family:'Soberana Texto';-inkscape-font-specification:'Soberana Texto Bold';fill:#8a8d8f;fill-opacity:1;stroke-width:0.18520834"
           y="113.01976"
           x="17.033945"
           id="tspan5344"
           sodipodi:role="line">Instituto Politécnico Nacional</tspan></text>
      <text
         xml:space="preserve"
         style="font-size:17.78000069px;font-family:'Soberana Texto';-inkscape-font-specification:'Soberana Texto';fill:#8a8d8f;fill-opacity:1;stroke-width:0.18520834"
         x="17.033945"
         y="116.72393"
         id="text5352"><tspan
           sodipodi:role="line"
           id="tspan5350"
           x="17.033945"
           y="116.72393"
           style="font-style:normal;font-variant:normal;font-weight:bold;font-stretch:normal;font-size:3.02506948px;font-family:'Soberana Texto';-inkscape-font-specification:'Soberana Texto Bold';fill:#8a8d8f;fill-opacity:1;stroke-width:0.18520834">“La Técnica al Servicio de la Patria”</tspan></text>
      <g
         transform="matrix(0.0982449,0,0,-0.0982449,-20.585297,171.41559)"
         id="g8141"
         style="fill:#6c1d45;fill-opacity:1">
        <g
           id="g8139"
           style="fill:#6c1d45;fill-opacity:1">
          <g
             id="g8137"
             style="fill:#6c1d45;fill-opacity:1">
            <g
               id="g8135"
               style="fill:#6c1d45;fill-opacity:1">
              <g
                 transform="translate(321.24856,597.31427)"
                 id="g7909"
                 style="fill:#6c1d45;fill-opacity:1">
                <path
                   inkscape:connector-curvature="0"
                   id="path7907"
                   style="fill:#6c1d45;fill-opacity:1;fill-rule:nonzero;stroke:none"
                   d="M 0,0 C 0.022,-0.015 0.043,-0.031 0.064,-0.046 L 7.62,18.248 3.119,17.249 1.696,13.89 l -12.754,-2.673 -1.099,2.642 -0.57,-0.125 4.772,-11.153 C -4.956,2.323 -2.359,1.645 0,0 M 1.428,13.257 -2.968,2.885 c -2.341,0.248 -4.683,0.149 -4.683,0.149 l -3.202,7.692 z" />
              </g>
              <g
                 transform="translate(331.79936,548.41017)"
                 id="g7913"
                 style="fill:#6c1d45;fill-opacity:1">
                <path
                   inkscape:connector-curvature="0"
                   id="path7911"
                   style="fill:#6c1d45;fill-opacity:1;fill-rule:nonzero;stroke:none"
                   d="m 0,0 c 0.483,0.788 0.943,1.604 1.389,2.445 l -7.973,18.637 -1.077,2.52 c -0.45,-0.67 -0.938,-1.308 -1.458,-1.913 l 0.897,-2.132 z" />
              </g>
              <g
                 transform="translate(279.30156,609.16507)"
                 id="g7917"
                 style="fill:#6c1d45;fill-opacity:1">
                <path
                   inkscape:connector-curvature="0"
                   id="path7915"
                   style="fill:#6c1d45;fill-opacity:1;fill-rule:nonzero;stroke:none"
                   d="M 0,0 V 7.274 L -0.321,7.448 -2.106,2.731 -1.411,1.54 Z" />
              </g>
              <g
                 transform="translate(358.25546,578.97427)"
                 id="g7921"
                 style="fill:#6c1d45;fill-opacity:1">
                <path
                   inkscape:connector-curvature="0"
                   id="path7919"
                   style="fill:#6c1d45;fill-opacity:1;fill-rule:nonzero;stroke:none"
                   d="m 0,0 -0.453,0.091 c -0.03,-1.631 -0.099,-3.24 -0.202,-4.825 l -6.736,1.154 c 0.134,1.657 0.222,3.331 0.265,5.027 l 6.673,-1.356 c 0.002,0.158 0.002,0.317 0.005,0.473 l -6.255,1.435 3.46,0.271 2.801,0.773 0.331,0.09 L 0.274,3.038 5.512,1.729 -0.697,0.523 -0.318,-0.146 0.261,0.06 7.238,1.676 7.293,6.214 0.216,8.104 0.181,8.112 c -0.035,1.304 -0.093,2.59 -0.169,3.863 l 2.849,1.265 3.783,2.376 -0.485,4.647 -7.295,2.812 -0.047,-0.004 c -0.043,0.261 -0.086,0.518 -0.128,0.778 l 2.285,1.656 3.833,4.269 -1.727,4.378 -7.458,3.242 -1.138,-0.471 0.674,1.01 7.031,1.447 v 4.979 l -3.672,1.921 v 26.984 0.029 l -6.491,4.307 -5.573,-2.007 v -6.45 l -6.542,4.091 -5.323,-1.907 V 43.523 l -8.035,-1.922 v 4.739 l 4.34,1.24 c 2.642,0.785 2.769,2.273 2.769,3.139 v 10.828 c 0,2.398 -1.449,3.183 -1.449,3.183 l -3.429,1.984 c -2.767,1.653 -4.586,0.867 -4.586,0.867 l -8.576,-3.063 v -5.15 l -1.081,0.541 v 8.342 l -13.082,6.777 v -0.674 l 3.814,-1.983 v -9.694 l -3.814,1.841 v 9.836 l -0.005,0.002 v 0.672 l -5.332,-2.212 V 62.64 l 4.95,1.743 v -0.938 l -4.95,-1.741 V 51.23 l 4.95,1.516 v -0.938 l -4.95,-1.516 V 39.573 l 4.95,1.268 v -0.938 l -4.95,-1.267 V 28.29 l 5.332,1.124 V 39.3 l 0.005,-0.002 v 0.701 l 3.144,-1.501 v -2.15 l -1.883,-0.451 v -4.595 l 51.903,11.702 6.542,-3.132 -6.542,-1.371 -4.848,2.338 -15.506,-3.469 c 0.442,-0.811 0.87,-1.649 1.277,-2.516 0.054,-0.111 0.107,-0.22 0.159,-0.333 l -0.538,-0.096 -0.017,-0.003 c -0.028,0.063 -0.247,0.551 -0.375,0.793 l -8.165,-19.3 -0.62,0.147 1.201,2.83 4.459,10.508 1.129,2.658 0.585,1.382 0.282,0.666 0.819,1.875 c -0.292,0.534 -0.536,0.997 -0.693,1.268 l -2.355,-0.484 -1.416,-3.423 -0.268,-0.651 -0.454,-1.099 -0.118,-0.287 -4.257,-10.306 -1.287,-3.118 -0.218,-0.528 -0.258,-0.626 -0.286,0.064 -0.382,0.088 0.371,0.893 c -2.228,1.608 -4.906,2.607 -7.773,2.875 -0.251,0.022 -0.501,0.042 -0.753,0.056 l -1.949,4.631 -2.772,6.592 -2.048,-0.456 1.613,-3.889 c -0.241,0.297 -0.563,0.484 -0.923,0.484 h -0.046 l -0.06,0.136 -1.308,3.108 -4.105,-0.911 v -1.65 l 1.688,-4.015 c -0.223,-0.326 -0.352,-0.718 -0.352,-1.138 0,-0.717 0.382,-1.341 0.953,-1.704 v -4.22 l -3.903,-0.578 c -0.063,-0.009 -0.122,-0.03 -0.179,-0.057 l -1.175,-0.599 -3.63,-0.595 v -1.258 l -0.965,-0.491 v 1.591 l -4.073,-0.665 v -3.003 l -0.965,-0.493 v 3.337 l -3.486,-0.57 V 9.746 l -0.965,-0.494 v 4.88 L -78.26,13.488 V 7.249 l -0.694,-0.352 v 9.692 1.842 5.531 l -2.082,0.744 -2.656,-0.075 -1.067,-4.171 2.06,-1.884 3.468,-1.838 c -0.226,-1.439 -0.417,-2.899 -0.58,-4.374 l -2.392,0.304 -3.847,-0.72 -0.398,-4.044 3.626,-1.939 1.508,-0.274 -4.209,-2.147 c -0.249,-0.126 -0.372,-0.413 -0.293,-0.68 0.079,-0.269 0.339,-0.443 0.617,-0.413 l 4.745,0.489 C -80.469,2.411 -80.48,1.885 -80.486,1.362 l 1.384,1.676 4.506,-5.669 -0.043,-28.041 c 0.345,-0.788 0.705,-1.561 1.077,-2.313 l -1.083,-0.022 0.006,2.335 c -0.183,0.415 -0.36,0.833 -0.535,1.258 -0.113,0.274 -0.223,0.551 -0.331,0.829 v 0.646 l 0.039,25.062 -3.666,4.689 -3.603,-4.349 -0.012,-5.16 2.609,-0.4 c 0.121,-1.39 0.275,-2.757 0.457,-4.095 l 0.465,-3.725 0.751,-2.989 c 0.18,-0.792 0.371,-1.572 0.575,-2.341 l -4.011,0.165 3.436,2.176 c -0.49,2.156 -0.899,4.395 -1.216,6.714 l -3.083,-2.014 -0.019,-7.462 5.073,-0.263 c 0.131,-0.481 0.268,-0.954 0.406,-1.424 l -3.063,-3.186 -1.576,-3.24 1.661,-3.882 4.769,0.028 -0.008,-4.472 0.87,1.885 0.003,0.008 0.003,2.584 1.397,0.008 0.217,0.003 -0.118,-0.189 -1.499,-2.406 -0.007,-3.927 c -0.276,0.093 -0.564,0.179 -0.867,0.254 l 0.001,1.78 -0.744,-1.616 c -0.906,0.166 -1.9,0.262 -2.943,0.262 -1.311,0 -2.544,-0.149 -3.621,-0.411 l 0.046,18.204 -0.569,0.03 -0.284,0.08 -0.062,-18.562 c -1.867,-0.61 -3.081,-1.589 -3.081,-2.694 0,-1.856 3.391,-3.356 7.571,-3.356 3.137,0 5.828,0.846 6.977,2.047 l 4.852,0.179 -1.021,-2.628 -0.063,-4.457 2.088,-1.928 6.992,0.599 -0.036,-0.159 0.318,-5.403 2.749,-1.362 6.776,0.709 0.908,-2.701 3.194,-0.538 7.817,0.777 0.107,-0.24 0.059,-0.129 0.112,-0.25 2.814,0.031 4.839,0.664 3.287,0.98 0.463,2.182 6.718,0.726 3.32,2.48 c 4.472,0.4 7.835,2.134 7.835,4.216 0,0.501 -0.194,0.979 -0.551,1.425 l 2.384,2.773 -1.173,4.992 -1.372,2.217 7.005,0.27 2.041,3.528 -1.901,4.545 -2.504,3.107 c 0.171,0.52 0.34,1.047 0.501,1.578 l 6.783,-0.226 1.065,4.316 -2.688,3.108 -2.864,2.218 c 0.237,1.286 0.45,2.596 0.639,3.922 l 2.252,-0.405 4.624,0.433 0.796,4.044 -3.611,2.384 -3.271,1.278 c 0.107,1.618 0.176,3.26 0.209,4.928 z M 0.198,7.556 6.753,5.781 6.7,2.162 0.271,3.675 H 0.269 L 0.161,7.566 Z m -13.745,52.839 -6.134,11.684 6.134,-3.714 z m -6.542,-0.732 6.542,-13.207 v -0.095 l -6.542,-1.564 z m -18.995,0.953 1.869,-0.933 v -4.1 c 0,-0.269 -0.216,-0.549 -0.482,-0.633 v 0 l -1.387,-0.409 z m 4.191,-13.698 c 1.075,-0.497 0.95,-1.529 0.95,-1.529 v -3.907 l -5.141,-1.231 v 8.452 c 1.243,-0.519 3.437,-1.436 4.191,-1.785 m 1.075,3.679 c 2.024,0.661 1.941,2.727 1.941,2.727 0,0 0.04,10.993 0.04,11.984 0,0.993 -0.536,1.406 -0.536,1.406 0,0 2.357,-1.323 4.007,-2.231 1.655,-0.911 1.532,-3.101 1.532,-3.101 V 50.719 c 0,-1.859 -2.356,-2.643 -2.356,-2.643 l -4.31,-1.267 -5,2.232 c 0,0 2.657,0.894 4.682,1.556 m -3.879,11.005 v 0 c 0.266,0.072 0.482,-0.083 0.482,-0.348 v -1.029 l -1.869,0.934 v 0.035 z m -8.285,-1.43 -3.115,1.557 v 7.716 l 3.115,-1.62 z m -5.658,1.738 v 8.857 l 2.044,-1.062 v -7.727 l -0.778,0.389 z m -2.588,10.201 2.09,-1.086 v -9.293 l -0.36,-0.13 -1.73,0.834 z m -4.313,-8.479 5.022,-2.398 -1.878,-0.677 v -9.202 l -3.144,1.518 v 0.644 l -0.005,0.003 v 9.357 l 0.005,-0.003 z m 0,-22.691 v 0.647 l -0.005,10e-4 v 9.643 l 0.005,-0.002 v 0.695 l 3.144,-1.501 V 39.423 Z m 8.167,20.656 5.996,-3 V 38.985 l -5.996,-1.435 z m 42.4,-13.902 V 76.68 l 5.836,-3.785 V 46.623 l -3.239,1.695 z m 2.597,0.077 6.867,-3.588 v -4.002 l -6.867,3.415 z m -76.815,-55.016 1.91,0.319 0.087,-0.596 z m 6.679,-25.781 -4.085,-0.083 2.814,2.046 1.277,1.308 z m 70.238,21.246 3.843,-0.695 c -0.192,-1.35 -0.409,-2.674 -0.648,-3.977 l -7.175,0.657 c 0.37,1.623 0.699,3.279 0.975,4.969 z m -6.032,-15.323 v -0.019 l -0.009,0.019 h 0.009 v 3.971 c -0.287,-0.861 -0.589,-1.709 -0.901,-2.543 v -1.382 h 0.008 l -0.008,-0.011 v 0.011 l -0.523,0.031 c 0.178,0.448 0.351,0.896 0.523,1.351 l 0.005,27.164 -4.661,6.33 -0.667,0.911 -0.735,-1.128 -2.092,-3.216 2.17,0.183 c 0.002,-0.248 0.008,-0.498 0.008,-0.749 V 3.713 l -2.768,-0.234 -1.28,-1.969 0.002,-0.513 4.008,0.345 c -0.237,-8.007 -1.619,-15.59 -3.841,-22.186 l 0.161,-21.834 c -0.136,-0.164 -0.735,-0.848 -0.899,-1.027 v -0.011 l -0.005,0.006 c 0.003,0 0.005,0.002 0.005,0.005 l -0.151,20.399 c -0.448,-1.159 -0.918,-2.286 -1.419,-3.372 l -7.796,18.165 c 2.162,2.548 3.718,5.633 4.438,9.032 l 4.595,0.397 -0.004,0.594 1.231,1.888 -14.06,-1.183 c -0.169,-1.588 -0.527,-3.098 -1.044,-4.493 -0.204,-0.546 -0.43,-1.069 -0.679,-1.575 l 0.679,-1.616 1.132,-2.694 c 0.515,0.617 0.991,1.274 1.431,1.96 0.149,0.233 0.294,0.465 0.436,0.706 1.004,1.709 1.779,3.597 2.293,5.602 l 0.698,0.051 c -0.559,-2.32 -1.464,-4.498 -2.66,-6.436 l 1.141,-2.666 7.864,-18.383 c 0.01,0.02 0.018,0.039 0.027,0.058 l -0.022,-0.074 -0.005,0.016 c -0.679,-1.428 -1.405,-2.777 -2.17,-4.05 l -0.05,0.118 -8.334,19.819 -1.15,2.698 c 0.004,0.005 0.007,0.008 0.01,0.012 l -0.641,1.525 -1.085,2.581 c 0,0 -1.106,0.176 -2.081,-0.522 -0.708,-0.508 -1.123,-1.159 -1.298,-1.479 -0.425,0.492 -0.888,0.953 -1.38,1.382 1.917,1.643 3.313,4.205 3.803,7.198 0.047,0.287 0.09,0.577 0.119,0.869 0.05,0.495 0.076,0.996 0.076,1.507 0,0.994 -0.104,1.956 -0.291,2.874 l 2.204,0.227 c -0.021,-0.052 -0.043,-0.11 -0.067,-0.183 -0.213,-0.624 -0.506,-1.863 0,-3.038 0.17,-0.402 0.438,-0.796 0.83,-1.154 l 8.877,0.749 5.988,0.502 2.98,4.582 0.325,0.498 0.904,0.093 0.531,-0.732 5.265,-7.242 v -24.636 c 0.083,0.255 0.169,0.509 0.251,0.765 l 3.399,-2.595 3.31,-0.848 c -0.171,-0.561 -0.345,-1.115 -0.526,-1.664 z m -9.001,-19.105 c -0.541,-0.058 -1.062,-0.138 -1.561,-0.236 l -0.02,2.645 z m -4.466,-0.183 1.982,2.224 0.015,-2.224 z m 1.356,-0.436 c -0.793,-0.239 -1.504,-0.529 -2.108,-0.859 l 0.99,0.859 z m -37.731,21.392 c 0.035,-0.006 0.071,-0.007 0.107,-0.01 0.082,-0.015 0.169,-0.025 0.258,-0.031 0.188,-0.017 0.375,-0.035 0.563,-0.045 0.838,-0.445 1.727,-0.83 2.671,-1.127 0.226,-0.073 0.453,-0.138 0.68,-0.2 0.35,0.106 0.77,0.318 1.171,0.721 0.378,0.382 0.739,0.931 1.01,1.741 0.944,2.84 0.778,2.507 1.946,3.229 0.724,0.446 0.702,1.212 0.909,2.072 0.322,0.003 0.641,0.008 0.958,0.013 -0.124,-0.426 -0.196,-0.846 -0.196,-1.193 0,-1.057 -1.113,-1.115 -1.781,-1.503 -0.669,-0.39 -0.444,-1.004 -0.669,-1.783 -0.223,-0.779 -0.889,-1.834 -1.167,-2.334 -0.056,-0.101 -0.136,-0.217 -0.23,-0.34 -0.247,-0.323 -0.58,-0.681 -0.776,-0.884 0.497,-0.095 0.993,-0.166 1.486,-0.21 0.264,0.255 0.634,0.618 1.003,1.003 0.539,0.564 1.071,1.173 1.244,1.542 0.39,0.834 0.39,1.39 2.059,2.17 2.726,1.113 1.39,2.782 2.225,3.562 0.04,0.038 0.079,0.075 0.116,0.113 0.191,0.013 0.379,0.027 0.564,0.04 -0.285,-0.444 -0.179,-0.891 -0.362,-1.336 -0.263,-0.64 -0.413,-1.692 -0.975,-2.029 -0.565,-0.337 -0.903,-1.09 -1.504,-1.314 -0.601,-0.226 -1.051,-0.639 -1.316,-1.427 -0.128,-0.388 -0.793,-0.858 -1.275,-1.306 -0.43,-0.4 -0.712,-0.783 -0.344,-1.077 0.118,0.002 0.237,0.004 0.354,0.008 5.535,0.16 10.431,3.355 12.024,8.406 0.091,0.287 0.164,0.571 0.229,0.861 -1.563,-4.614 -6.034,-7.609 -11.312,-8.133 0.183,0.234 0.365,0.468 0.513,0.675 0.563,0.79 1.804,1.656 2.479,2.368 0.676,0.715 1.051,1.579 1.465,2.14 0.398,0.544 0.175,1.533 0.952,2.245 0.332,0.03 0.652,0.063 0.967,0.098 -0.146,-0.503 -0.343,-0.853 -0.82,-1.729 0.698,0.656 1.122,1.115 1.39,1.794 0.322,0.044 0.634,0.086 0.933,0.131 -0.35,-1.374 -0.818,-2.658 -1.368,-3.538 0.769,0.886 1.408,2.19 1.857,3.616 2.344,0.388 3.901,0.922 4.208,1.516 0,0 0,-0.003 0.004,-0.006 -0.826,-6.446 -6.597,-11.439 -13.599,-11.439 -3.284,0 -6.293,1.103 -8.651,2.93 m -4.267,20.496 c -0.022,0.767 -0.022,1.633 0.015,2.599 l 0.814,0.058 c -0.009,-0.591 -0.022,-2.429 0.102,-4.218 0.028,-0.41 0.068,-0.816 0.112,-1.208 -0.245,-0.345 -0.475,-0.7 -0.688,-1.062 -0.113,0.627 -0.302,1.923 -0.355,3.831 m 1.543,2.401 c 0.005,0.111 0.01,0.214 0.016,0.311 l 4.759,0.346 c -0.17,-0.45 -0.28,-0.957 -0.308,-1.522 -1.672,-0.877 -3.139,-2.057 -4.32,-3.468 -0.068,0.996 -0.193,3.063 -0.147,4.333 m 8.465,4.895 c -0.041,0.159 -0.21,0.277 -0.422,0.277 -0.101,0 -0.191,-0.03 -0.265,-0.076 -0.061,0.131 -0.218,0.227 -0.408,0.227 -0.24,0 -0.438,-0.151 -0.438,-0.34 0,-0.045 0.014,-0.088 0.034,-0.125 -1.012,0.007 -1.965,0.108 -2.62,0.402 -1.139,0.511 -0.354,0.471 -0.077,0.745 0.274,0.277 -1.26,0.317 -1.26,0.869 0,0.334 0.249,0.551 0.443,0.671 l 3.131,0.323 c 0.614,-0.154 1.704,-0.436 2.009,-0.605 0.433,-0.233 4.718,-0.547 5.779,-0.785 1.062,-0.236 2.399,-0.747 2.399,-2.907 0,-1.729 -2.154,-2.102 -3.021,-2.182 v 0.644 c 0.038,0.051 0.066,0.107 0.066,0.172 0,0.035 -0.009,0.068 -0.022,0.097 0.228,0.019 0.407,0.137 0.407,0.292 0,0.031 -0.014,0.055 -0.025,0.083 0.056,-0.025 0.119,-0.042 0.192,-0.042 0.191,0 0.344,0.099 0.344,0.221 0,0.086 -0.081,0.159 -0.194,0.195 0.048,0.028 0.081,0.068 0.081,0.118 0,0.085 -0.092,0.15 -0.201,0.15 -0.111,0 -0.201,-0.065 -0.201,-0.15 0,-0.041 0.024,-0.08 0.06,-0.109 -0.134,-0.03 -0.232,-0.108 -0.232,-0.204 0,-0.012 0.007,-0.025 0.011,-0.035 -0.079,0.044 -0.178,0.071 -0.286,0.071 v 0.299 c 0.235,0.287 0.269,0.532 0.159,0.743 0.161,0.045 0.277,0.153 0.277,0.279 0,0.171 -0.203,0.307 -0.453,0.307 -0.157,0 -0.288,-0.055 -0.369,-0.138 0,0 -0.002,0 -0.002,0.002 -0.105,0.051 -0.225,0.099 -0.35,0.139 0.112,0.043 0.18,0.092 0.18,0.149 0,0.047 -0.05,0.091 -0.133,0.128 0.059,0.035 0.097,0.083 0.097,0.138 0,0.114 -0.153,0.204 -0.342,0.204 -0.189,0 -0.342,-0.09 -0.342,-0.204 0,-0.01 0.006,-0.017 0.009,-0.027 -0.054,0.002 -0.108,0.005 -0.166,0.005 -0.263,0 -0.497,-0.036 -0.659,-0.089 -0.057,0.011 -0.114,0.018 -0.171,0.026 0.011,0.017 0.024,0.037 0.024,0.055 0,0.113 -0.206,0.206 -0.458,0.206 -0.232,0 -0.417,-0.078 -0.447,-0.179 -0.043,0.003 -0.087,0.006 -0.131,0.009 0.051,0.052 0.085,0.114 0.085,0.188 0,0.176 -0.17,0.317 -0.382,0.317 -0.211,0 -0.382,-0.141 -0.382,-0.317 0,-0.063 0.03,-0.121 0.07,-0.171 -0.119,0 -0.232,-0.003 -0.338,-0.006 -0.012,0.129 -0.135,0.227 -0.294,0.23 0.063,0.045 0.105,0.111 0.105,0.188 0,0.134 -0.126,0.245 -0.281,0.245 -0.155,0 -0.282,-0.111 -0.282,-0.245 0,-0.132 0.119,-0.238 0.267,-0.246 -0.069,-0.043 -0.116,-0.111 -0.116,-0.189 0,-0.005 0.002,-0.01 0.002,-0.015 -0.152,-0.01 -0.307,-0.02 -0.461,-0.028 m -9.751,-22.675 c -0.671,1.535 -1.047,3.216 -1.047,4.981 0,4.805 2.744,8.993 6.817,11.248 0.211,-1.613 1.73,-3.468 5.763,-5.487 -0.147,-0.151 -0.59,-0.644 -0.731,-1.059 -0.167,-0.502 -0.668,-0.503 -1.111,-0.781 -0.448,-0.278 -1.247,-1.069 -1.115,-1.893 0.08,-0.495 -0.039,-0.843 -0.203,-1.132 -0.628,-0.038 -1.237,-0.081 -1.819,-0.134 0.075,1.571 0.383,3.028 0.867,4.269 -0.763,-1.183 -1.263,-2.674 -1.374,-4.314 -0.322,-0.032 -0.64,-0.065 -0.945,-0.103 0.077,2.272 0.589,4.363 1.412,6.054 -1.091,-1.632 -1.781,-3.764 -1.873,-6.112 -0.534,-0.067 -1.036,-0.144 -1.507,-0.224 0.049,2.409 0.648,4.634 1.643,6.461 -1.378,-1.772 -2.22,-4.065 -2.262,-6.574 -0.266,-0.053 -0.521,-0.108 -0.759,-0.164 0,0.028 -0.004,0.053 -0.004,0.081 0,2.565 0.744,4.933 2.001,6.851 -1.605,-1.847 -2.574,-4.236 -2.574,-6.851 0,-0.079 0.003,-0.154 0.005,-0.227 -1.334,-0.37 -2.108,-0.807 -2.108,-1.275 0,-0.514 0.932,-0.99 2.509,-1.38 0.429,-1.48 1.176,-2.829 2.168,-3.969 -0.747,1.14 -1.308,2.441 -1.643,3.848 0.259,-0.055 0.533,-0.111 0.818,-0.161 0.385,-1.382 1.017,-2.646 1.849,-3.718 -0.59,1.083 -1.037,2.309 -1.317,3.627 0.5,-0.08 1.036,-0.159 1.604,-0.224 0.326,-1.22 0.819,-2.333 1.45,-3.274 -0.47,0.961 -0.834,2.054 -1.081,3.233 0.273,-0.029 0.552,-0.059 0.838,-0.085 -0.06,-0.314 -0.048,-0.712 0.078,-1.238 0.391,-1.613 0.781,-1.779 0.057,-2.505 -0.518,-0.515 -0.164,-1.212 0.079,-1.567 -1.67,0.463 -3.602,1.18 -4.922,2.237 -0.669,0.536 -1.177,1.065 -1.563,1.561 m 22.234,6.393 c -0.008,-0.337 -0.029,-0.692 -0.063,-1.068 -0.25,0.043 -0.504,0.084 -0.769,0.125 -0.035,0.533 -0.244,1.23 -0.319,1.467 0.411,-0.177 0.796,-0.352 1.151,-0.524 m -1.585,0.704 c 0.184,-0.757 0.073,-1.261 -0.079,-1.537 -0.164,0.02 -0.327,0.04 -0.496,0.06 -0.15,0.295 -0.201,0.803 0.018,1.687 l -0.104,0.06 c 0.228,-0.091 0.448,-0.179 0.661,-0.27 m -1.361,-1.394 c -0.199,0.018 -0.4,0.038 -0.605,0.056 0.101,0.899 0.518,1.483 0.252,2.013 0.208,-0.078 0.412,-0.156 0.612,-0.231 -0.061,-0.239 -0.267,-1.09 -0.259,-1.838 m -3.778,0.245 c -0.161,0.008 -0.323,0.012 -0.486,0.015 -0.126,0.887 -0.195,1.769 0.988,2.869 0.292,-0.105 0.591,-0.217 0.899,-0.325 0.047,-0.017 0.093,-0.032 0.138,-0.051 -0.219,-0.273 -1.281,-1.645 -1.539,-2.508 m -7.546,-1.608 c 0.5,-1.059 10e-4,-1.451 -0.667,-1.728 -0.182,-0.075 -0.364,-0.163 -0.525,-0.286 -0.152,0.838 -0.234,1.726 -0.237,2.647 0.44,0.028 0.893,0.051 1.358,0.07 -0.064,-0.201 -0.063,-0.422 0.071,-0.703 m -6.188,0.148 c 0.232,0.04 0.483,0.078 0.747,0.113 0.024,-0.667 0.105,-1.32 0.236,-1.949 -0.276,0.036 -0.539,0.074 -0.784,0.114 -0.103,0.561 -0.171,1.135 -0.199,1.722 m -0.349,-1.629 c -1.223,0.23 -1.929,0.499 -1.929,0.784 0,0.268 0.623,0.52 1.709,0.742 0.036,-0.522 0.111,-1.03 0.22,-1.526 m 1.709,1.82 c 0.462,0.055 0.962,0.108 1.493,0.153 0.011,-0.83 0.097,-1.635 0.25,-2.403 -0.554,0.048 -1.074,0.098 -1.556,0.153 -0.109,0.68 -0.173,1.382 -0.187,2.097 m 1.954,0.194 c 0.303,0.024 0.615,0.045 0.937,0.068 0.005,-0.919 0.132,-1.805 0.363,-2.621 -0.381,0.023 -0.749,0.048 -1.104,0.076 -0.122,0.795 -0.19,1.626 -0.196,2.477 m 9.108,-1.984 c 0.807,0.846 0.951,1.561 0.922,2.233 0.167,-0.002 0.331,-0.008 0.494,-0.011 0.253,-0.62 0.474,-1.25 -0.136,-1.719 -0.315,-0.244 -0.619,-0.707 -0.863,-1.24 -0.315,-0.005 -0.635,-0.008 -0.957,-0.011 0.131,0.25 0.302,0.501 0.54,0.748 m 4.509,1.951 c -0.01,0.05 -0.012,0.096 -0.019,0.143 0.246,-0.014 0.487,-0.03 0.723,-0.044 0.032,-0.081 0.069,-0.159 0.117,-0.224 0.48,-0.643 0.412,-1.69 -0.292,-2.379 -0.307,-0.021 -0.622,-0.041 -0.944,-0.058 0.387,0.67 0.59,1.502 0.415,2.562 m 1.994,-2.394 0.18,0.69 0.021,1.206 c 0.066,0.138 0.172,0.284 0.328,0.448 0.304,-0.03 0.595,-0.061 0.874,-0.094 -0.086,-0.694 -0.21,-1.427 -0.37,-2.15 -0.328,-0.035 -0.673,-0.069 -1.033,-0.1 m 1.95,2.185 c 2.018,-0.267 3.241,-0.609 3.241,-0.988 0,-0.404 -1.384,-0.768 -3.637,-1.039 0.175,0.671 0.311,1.355 0.396,2.027 m 0.065,0.599 c 0.025,0.305 0.039,0.604 0.044,0.896 0.293,-0.158 0.562,-0.314 0.803,-0.471 0.541,-0.352 1.057,-0.704 1.493,-1.039 -0.598,0.226 -1.389,0.432 -2.34,0.614 m 2.812,4.213 c -1.146,0.751 -2.603,1.526 -4.426,2.313 -0.444,0.958 -1.122,1.833 -1.983,2.583 0.598,-0.742 1.031,-1.46 1.34,-2.313 -0.464,0.194 -0.944,0.385 -1.452,0.578 -0.054,0.021 -0.105,0.042 -0.159,0.061 -0.361,0.733 -0.911,1.403 -1.609,1.978 0.523,-0.614 0.884,-1.1 1.135,-1.797 -8.02,3.076 -8.442,3.992 -8.102,4.959 0.014,0.004 0.026,0.008 0.04,0.01 0.169,0.025 0.337,0.051 0.505,0.074 v 0.603 3.348 l 0.76,0.065 V 0.909 c 0,-0.113 0.091,-0.204 0.203,-0.204 0.111,0 0.203,0.091 0.203,0.204 v 0.715 l 1.114,0.09 c 0.524,-0.116 0.976,-0.279 1.289,-0.405 V -1.81 -2.416 c 0.168,-0.02 0.336,-0.04 0.503,-0.068 4.931,-0.766 8.968,-4.038 10.639,-8.39 M -50.773,4.548 c -0.126,0.02 -0.248,0.043 -0.38,0.063 -0.799,0.115 -1.466,0.211 -2.023,0.295 v 0.85 l 2.403,0.247 z m -2.809,0.418 c -0.283,0.042 -0.536,0.08 -0.76,0.118 v 0.552 l 0.76,0.078 z m -1.409,0.227 c -0.532,0.093 -0.853,0.168 -1.1,0.261 l 1.1,0.113 z m 0,-6.761 c -0.293,-0.398 -0.829,-1.271 -0.417,-1.993 0.454,-1.061 2.328,-2.092 9.42,-4.777 3.355,-1.275 11.203,-3.966 9.599,-9.151 -0.29,-0.935 -1.633,-1.867 -2.491,-2.108 0.019,0.058 0.041,0.111 0.06,0.169 l -0.076,-0.107 c 0.037,0.154 0.13,0.547 0.221,0.944 0.094,-0.009 0.208,0.019 0.309,0.098 0.161,0.127 0.221,0.317 0.136,0.426 -0.064,0.083 -0.191,0.096 -0.319,0.045 0.056,0.257 0.093,0.454 0.087,0.489 -0.005,0.035 -0.012,0.092 -0.026,0.176 0.146,-0.111 0.291,-0.149 0.372,-0.085 0.057,0.045 0.069,0.133 0.047,0.241 0.006,-0.013 0.009,-0.027 0.018,-0.04 0.103,-0.131 0.314,-0.138 0.471,-0.015 0.157,0.123 0.201,0.33 0.097,0.46 -0.101,0.131 -0.313,0.139 -0.47,0.015 -0.108,-0.085 -0.159,-0.209 -0.149,-0.322 -0.034,0.099 -0.085,0.199 -0.165,0.302 -0.193,0.246 -0.437,0.375 -0.566,0.309 -0.167,0.282 -0.415,0.612 -0.781,0.983 0.013,0.007 0.027,0.014 0.037,0.024 0.221,0.172 0.241,0.514 0.045,0.763 -0.198,0.249 -0.535,0.313 -0.754,0.144 -0.071,-0.055 -0.112,-0.132 -0.14,-0.212 -0.175,0.137 -0.368,0.279 -0.575,0.423 0.107,0.018 0.211,0.057 0.304,0.133 0.271,0.212 0.333,0.584 0.137,0.839 -0.196,0.246 -0.576,0.276 -0.848,0.065 -0.197,-0.156 -0.281,-0.398 -0.238,-0.612 -0.259,0.159 -0.533,0.325 -0.834,0.492 0.024,0.079 0.024,0.168 0.004,0.261 0.078,0.015 0.151,0.042 0.213,0.093 0.109,0.086 0.166,0.214 0.18,0.36 0.102,-0.057 0.221,-0.063 0.306,0.005 0.118,0.089 0.124,0.281 0.011,0.422 -0.108,0.142 -0.293,0.182 -0.413,0.089 -0.011,-0.007 -0.016,-0.02 -0.024,-0.03 -0.021,0.035 -0.043,0.07 -0.069,0.105 -0.256,0.325 -0.668,0.431 -0.92,0.235 -0.211,-0.169 -0.242,-0.502 -0.088,-0.796 -0.01,-0.005 -0.02,-0.008 -0.029,-0.015 -0.072,-0.055 -0.107,-0.138 -0.125,-0.229 -0.477,0.239 -1.007,0.483 -1.584,0.73 0.022,0.236 -0.097,0.531 -0.341,0.76 -0.35,0.33 -0.815,0.408 -1.039,0.169 -0.08,-0.083 -0.116,-0.197 -0.119,-0.32 -0.157,0.063 -0.313,0.123 -0.477,0.182 0.086,0.117 0.107,0.268 0.054,0.415 0.023,0.01 0.046,0.022 0.067,0.039 0.233,0.179 0.252,0.547 0.04,0.814 -0.209,0.266 -0.569,0.337 -0.8,0.156 -0.231,-0.182 -0.25,-0.541 -0.046,-0.808 -0.084,-0.086 -0.121,-0.201 -0.113,-0.324 -10e-4,0 -0.002,0.001 -0.005,0.001 -0.121,0.044 -0.233,0.084 -0.349,0.127 0.048,0.247 -0.097,0.567 -0.391,0.795 -0.151,0.116 -0.315,0.189 -0.472,0.216 0.009,0.006 0.022,0.008 0.03,0.016 0.119,0.09 0.124,0.281 0.013,0.423 -0.002,10e-4 -0.004,0.004 -0.006,0.007 0.01,0.005 0.021,0.005 0.031,0.013 0.176,0.138 0.179,0.428 0.007,0.648 -0.173,0.223 -0.456,0.288 -0.632,0.15 -0.176,-0.139 -0.18,-0.431 -0.007,-0.65 0.044,-0.055 0.095,-0.101 0.147,-0.136 -0.068,-0.1 -0.061,-0.249 0.031,-0.368 0.034,-0.042 0.076,-0.072 0.122,-0.097 -0.115,-0.02 -0.216,-0.072 -0.283,-0.157 -0.065,-0.085 -0.088,-0.189 -0.083,-0.303 -0.129,0.049 -0.252,0.1 -0.377,0.147 0.047,0.269 -0.18,0.632 -0.573,0.884 -0.219,0.141 -0.449,0.216 -0.648,0.229 0.078,0.032 0.149,0.077 0.195,0.149 0.132,0.21 0.045,0.505 -0.196,0.659 -0.243,0.154 -0.547,0.108 -0.679,-0.103 -0.135,-0.209 -0.046,-0.504 0.195,-0.655 0.065,-0.042 0.134,-0.066 0.203,-0.08 -0.089,-0.03 -0.161,-0.079 -0.206,-0.151 -0.036,-0.056 -0.051,-0.124 -0.051,-0.194 -0.288,0.129 -0.561,0.254 -0.827,0.38 -0.016,0.189 -0.109,0.419 -0.276,0.635 -0.172,0.216 -0.378,0.364 -0.562,0.424 0.209,0.175 0.199,0.536 -0.022,0.824 -0.16,0.203 -0.39,0.31 -0.589,0.292 -0.012,0.019 -0.018,0.043 -0.035,0.062 -0.092,0.116 -0.223,0.172 -0.342,0.159 -0.009,0.118 -0.057,0.25 -0.148,0.368 -0.194,0.246 -0.496,0.332 -0.671,0.196 -0.176,-0.141 -0.164,-0.456 0.028,-0.698 0.16,-0.203 0.388,-0.299 0.562,-0.251 0.016,-0.055 0.039,-0.108 0.078,-0.156 0.043,-0.056 0.097,-0.093 0.152,-0.121 -0.001,-0.153 0.056,-0.325 0.173,-0.47 0.118,-0.154 0.275,-0.252 0.428,-0.285 -0.059,-0.083 -0.079,-0.199 -0.059,-0.337 -0.394,0.209 -0.756,0.412 -1.089,0.614 -0.031,0.176 -0.127,0.385 -0.284,0.586 -0.291,0.371 -0.674,0.559 -0.855,0.418 -0.056,-0.042 -0.082,-0.115 -0.088,-0.204 -0.458,0.333 -0.841,0.649 -1.157,0.951 0.079,0.22 -0.007,0.562 -0.244,0.864 -0.248,0.314 -0.578,0.481 -0.812,0.436 -0.092,0.163 -0.166,0.317 -0.224,0.463 0.132,0.06 0.252,0.17 0.328,0.326 0.147,0.306 0.066,0.65 -0.183,0.771 -0.1,0.047 -0.212,0.053 -0.319,0.02 0.012,0.25 0.044,0.493 0.102,0.723 0.002,-0.18 0.072,-0.33 0.207,-0.395 0.215,-0.106 0.511,0.057 0.659,0.362 0.148,0.302 0.093,0.634 -0.123,0.74 -0.183,0.088 -0.424,-0.015 -0.583,-0.234 0.159,0.387 0.377,0.742 0.636,1.06 0.035,-0.134 0.114,-0.244 0.235,-0.302 0.249,-0.12 0.571,0.027 0.717,0.331 0.144,0.295 0.072,0.622 -0.155,0.755 0.69,0.557 1.475,0.937 2.127,1.141 z m -12.285,-18.626 c -0.087,0 -0.165,-0.038 -0.228,-0.094 0.003,0.182 0.02,0.351 0.051,0.502 0.035,-0.063 0.083,-0.101 0.136,-0.101 0.101,0 0.184,0.141 0.184,0.315 0,0.156 -0.066,0.277 -0.152,0.305 0.301,0.653 0.803,0.908 0.803,0.908 0,0 0.014,-0.079 0.046,-0.211 -0.115,-0.013 -0.203,-0.144 -0.203,-0.31 0,-0.174 0.098,-0.317 0.221,-0.317 0.055,0 0.106,0.032 0.144,0.082 0.294,-0.847 0.961,-2.232 2.379,-3.176 2.974,-1.983 6.969,-2.509 6.969,-2.509 -0.751,-0.156 -1.551,-0.234 -2.357,-0.242 -0.062,0.139 -0.294,0.245 -0.574,0.245 -0.003,0 -0.008,-0.003 -0.012,-0.003 0,0.008 0.002,0.012 0.002,0.02 0,0.179 -0.137,0.33 -0.309,0.33 -0.143,0 -0.256,-0.104 -0.294,-0.237 -0.06,0.002 -0.121,0.006 -0.181,0.006 -0.254,0 -0.483,-0.041 -0.655,-0.104 0.036,0.056 0.059,0.125 0.059,0.204 0,0.176 -0.101,0.315 -0.227,0.315 -0.08,0 -0.15,-0.063 -0.189,-0.154 -0.09,0.035 -0.194,0.058 -0.306,0.058 -0.159,0 -0.3,-0.041 -0.41,-0.109 -0.087,0.091 -0.233,0.157 -0.408,0.175 0.026,0.08 0.044,0.171 0.044,0.271 0,0.269 -0.102,0.492 -0.227,0.492 -0.127,0 -0.228,-0.223 -0.228,-0.492 0,-0.017 0.004,-0.035 0.004,-0.05 -0.103,0.055 -0.234,0.088 -0.38,0.088 -0.101,0 -0.194,-0.015 -0.277,-0.044 0.028,0.077 0.047,0.165 0.047,0.258 0,0.305 -0.18,0.557 -0.404,0.557 -0.128,0 -0.241,-0.084 -0.316,-0.213 -0.063,0.082 -0.152,0.132 -0.251,0.132 -0.063,0 -0.12,-0.026 -0.172,-0.064 -0.056,0.055 -0.123,0.093 -0.199,0.093 -0.083,0 -0.152,-0.038 -0.21,-0.097 -0.018,0.179 -0.131,0.317 -0.28,0.338 0.008,0.055 0.014,0.11 0.014,0.165 0,0.219 -0.064,0.411 -0.164,0.538 0.114,0.046 0.198,0.192 0.198,0.376 0,0.219 -0.119,0.395 -0.264,0.395 -0.147,0 -0.264,-0.176 -0.264,-0.395 0,-0.083 0.021,-0.157 0.049,-0.222 -0.125,-0.002 -0.24,-0.093 -0.318,-0.232 -0.04,0.031 -0.083,0.051 -0.131,0.051 -0.087,0 -0.16,-0.055 -0.217,-0.141 -0.013,0.018 -0.027,0.035 -0.039,0.053 0.079,0.098 0.132,0.241 0.132,0.408 0,0.114 -0.025,0.216 -0.064,0.302 0.16,0.028 0.286,0.181 0.286,0.375 0,0.214 -0.149,0.385 -0.334,0.385 -0.183,0 -0.331,-0.171 -0.331,-0.385 0,-0.055 0.009,-0.106 0.028,-0.154 -0.076,-0.017 -0.144,-0.068 -0.197,-0.143 -0.062,0.146 -0.115,0.3 -0.151,0.456 -0.024,0.098 -0.04,0.193 -0.054,0.289 0.054,-0.035 0.114,-0.061 0.181,-0.061 0.198,0 0.359,0.174 0.359,0.388 0,0.212 -0.161,0.385 -0.359,0.385 m 14.08,-8.754 c 0.159,-0.007 0.317,-0.01 0.477,-0.01 -0.873,-1.875 -1.66,-5.08 2.032,-7.453 2.869,-1.845 6.291,-2.839 9.383,-2.834 4.973,0.009 8.995,2.104 8.995,2.104 0,0 -5.435,-3.942 -12.403,-2.295 -12.357,3.011 -9.128,9.41 -8.484,10.488 m 9.517,-9.454 c -7.773,1.035 -10.01,5.518 -8.96,8.193 0.243,0.637 0.397,1.022 0.495,1.251 5.887,0.136 10.891,3.644 12.961,8.567 0.508,0.159 1.654,0.602 2.511,1.551 l 5.415,-13.191 c 0,0 0.768,-2.376 -0.743,-3.806 -2.107,-1.993 -7.155,-3.169 -11.679,-2.565 m 33.686,64.788 7.979,-3.049 0.067,0.048 c 0.021,-0.12 0.036,-0.241 0.056,-0.361 l -2.595,-0.166 -4.319,-1.529 c -0.345,1.723 -0.745,3.408 -1.188,5.057 M -3.675,8.915 h -3.564 c -0.093,1.689 -0.232,3.353 -0.416,4.996 l 6.958,-2.053 c 0.07,-1.186 0.123,-2.385 0.159,-3.597 z m 9.403,10.916 0.269,-3.837 -6.508,2.098 -0.03,0.009 -0.27,2.424 -0.216,1.954 z m -6.892,-2.306 0.137,0.09 0.588,-0.196 5.896,-1.965 -2.702,-1.729 -2.783,-1.133 -0.406,-0.163 -0.304,0.09 -6.503,1.962 3.133,1.081 z M 2.755,33.664 3.999,30.044 -2.973,32.91 -4,36.637 Z m -5.889,-1.211 6.917,-3.003 -3.35,-3.676 -2.541,-1.891 -7.351,3.028 3.73,2.702 z m -7.339,8.022 4.919,-2.354 -1.212,-1.717 -1.394,-0.577 -3.945,-2.803 c -0.516,1.392 -1.065,2.751 -1.648,4.065 z m -21.383,-22.666 6.739,15.944 1.067,0.224 c 2.753,-6.12 4.644,-13.514 5.439,-21.543 l -11.415,2.69 c -0.544,0.943 -1.152,1.844 -1.83,2.685 m -15.345,1.016 -0.695,-0.102 -1.567,3.943 c 0.148,0.279 0.231,0.593 0.231,0.929 0,0.047 -0.003,0.09 -0.006,0.135 z m -2.531,6.095 c -0.224,0.257 -0.513,0.457 -0.841,0.579 0.099,0.244 0.16,0.516 0.16,0.809 0,0.106 -0.01,0.211 -0.024,0.312 z m -1.224,1.388 c 0,-0.26 -0.096,-0.497 -0.245,-0.678 -0.036,0.001 -0.073,0.004 -0.11,0.004 h -2.553 c -0.038,0 -0.075,-0.003 -0.11,-0.004 -0.151,0.181 -0.244,0.418 -0.244,0.678 0,0.582 0.452,1.054 1.009,1.054 h 1.241 c 0.558,0 1.012,-0.472 1.012,-1.054 m -4.411,-2.713 c 0,0.804 0.771,1.457 1.723,1.457 h 2.113 c 0.95,0 1.722,-0.653 1.722,-1.457 0,-0.312 -0.117,-0.598 -0.315,-0.834 v 0.01 c 0,0 -1.261,0.505 -2.464,0.505 -1.204,0 -2.403,-0.505 -2.403,-0.505 v -0.077 c -0.234,0.248 -0.376,0.56 -0.376,0.901 m 1.025,-1.366 c 0,0 0.269,0.173 0.76,0.297 v -0.359 c 0,-0.113 0.091,-0.204 0.203,-0.204 0.111,0 0.203,0.091 0.203,0.204 v 0.435 c 0.179,0.024 0.371,0.044 0.588,0.044 1.117,0 1.815,-0.417 1.815,-0.417 v -3.933 l -2.403,-0.356 v 0.642 c 0,0.111 -0.092,0.203 -0.203,0.203 -0.112,0 -0.203,-0.092 -0.203,-0.203 V 17.88 l -0.76,-0.112 z m -30.916,-19.202 26.448,13.491 12.272,1.818 9.263,-2.111 0.841,-0.19 0.23,-0.053 1.072,-0.245 -0.01,-0.004 22.232,-5.237 z m 12.892,-46.626 c -0.143,-0.194 -0.325,-0.376 -0.552,-0.546 -1.208,-0.922 -3.571,-1.546 -6.29,-1.546 -3.946,0 -7.147,1.316 -7.147,2.945 0,1.626 3.201,2.945 7.147,2.945 0.993,0 1.94,-0.083 2.8,-0.234 0.306,-0.053 0.601,-0.121 0.886,-0.192 l -0.003,-0.477 c -0.332,0.085 -0.701,0.155 -1.093,0.215 -0.749,0.116 -1.589,0.181 -2.482,0.181 -3.098,0 -5.61,-0.775 -5.61,-1.726 0,-0.953 2.512,-1.729 5.61,-1.729 1.658,0 3.142,0.225 4.169,0.574 0.892,0.307 1.441,0.71 1.441,1.155 0,0.395 -0.438,0.758 -1.166,1.05 v 0.508 c 1.268,-0.431 2.161,-1.04 2.473,-1.734 0.077,-0.174 0.122,-0.352 0.122,-0.536 0,-0.297 -0.108,-0.581 -0.305,-0.853 m -4.997,1.658 c -4.123,0.66 -6.168,-0.077 -6.685,-0.31 -0.047,0.074 -0.076,0.149 -0.076,0.225 0,0.747 2.267,1.349 5.065,1.349 0.953,0 1.839,-0.071 2.599,-0.192 0.338,-0.052 0.653,-0.115 0.935,-0.191 l -0.002,-1.223 -0.002,-0.707 c -0.912,-0.237 -2.156,-0.382 -3.53,-0.382 -1.653,0 -3.116,0.211 -4.039,0.537 0.959,0.741 4.761,0.497 5.526,0.539 0.775,0.041 0.209,0.355 0.209,0.355 m 2.707,0.582 c 0.421,-0.194 0.665,-0.423 0.665,-0.667 0,-0.242 -0.245,-0.471 -0.667,-0.665 z m 7.489,-2.039 -4.673,-0.181 c 0.131,0.246 0.207,0.501 0.207,0.765 0,0.312 -0.107,0.619 -0.292,0.906 l 0.343,0.4 1.592,2.389 c 0.945,-1.38 1.938,-2.675 2.98,-3.876 z m 7.918,-8.352 -6.494,-0.639 1.993,2.53 1.138,2.537 c 1.207,-1.002 2.458,-1.9 3.745,-2.69 z m 9.579,-6.231 -5.86,-0.733 1.17,2.97 0.452,3.268 c 1.42,-0.542 2.872,-0.97 4.349,-1.272 z m 4.386,-3.293 0.854,2.94 0.058,4.037 c 0.089,0 0.179,-0.005 0.266,-0.005 1.476,0 2.928,0.142 4.358,0.403 l 0.505,-3.615 1.306,-2.902 z m 1.179,17.454 c -19.517,-0.071 -29.709,21.914 -28.562,47.565 l 2.57,0.305 c -0.564,-2.102 0.115,-3.718 0.107,-3.847 l 14.629,1.234 C -55.83,1.271 -56.478,0.989 -57.121,0.546 L -70.03,-0.657 c -0.031,-0.803 -0.049,-1.61 -0.049,-2.426 0,-5.649 0.883,-11.015 2.416,-15.87 -0.272,-0.566 -0.425,-1.314 -0.218,-2.258 0.224,-1.032 0.982,-1.923 2.056,-2.625 0.943,-2.149 2.012,-4.166 3.192,-6.016 l 1.653,3.531 c 0.345,-0.23 0.268,-0.168 0.507,-0.311 l -1.626,-4.01 c 0,0 -0.42,-1.591 1.139,-3.186 0.657,-0.672 1.19,-0.702 1.572,-0.549 l 2.504,6.063 c 0.163,-0.05 0.329,-0.095 0.497,-0.141 l -2.541,-6.292 c 4.498,-4.989 9.89,-7.954 15.271,-7.984 3.421,-0.015 6.762,1.266 9.853,3.501 1.374,0.991 2.691,2.175 3.952,3.514 -4.101,-5.074 -9.004,-8.087 -14.253,-8.104 m 14.89,-8.078 -4.93,-0.272 c 1.427,0.624 2.815,1.382 4.166,2.258 z m -1.966,-8.933 -3.067,-0.41 0.886,0.692 4.078,0.317 z m 4.364,1.42 -5.196,-0.558 -1.069,-0.117 -0.472,-0.05 v 4.141 l -0.537,3.319 5.071,0.27 0.78,-2.025 1.844,-3.052 z m 7.206,2.814 -5.277,-0.433 2.204,1.654 5.477,0.471 z m -3.599,2.613 c 0.277,-0.075 0.557,-0.152 0.848,-0.217 0.184,-0.042 0.376,-0.082 0.567,-0.12 0.589,-0.111 1.205,-0.199 1.845,-0.26 l -2.814,-0.204 z m 14.559,3.7 c 0,-2.09 -4.139,-3.781 -9.243,-3.781 -1.152,0 -2.257,0.086 -3.275,0.244 -0.201,0.03 -0.4,0.066 -0.593,0.104 -3.171,0.598 -5.374,1.909 -5.374,3.433 0,2.086 4.137,3.777 9.242,3.777 1.04,0 2.044,-0.07 2.98,-0.201 0.214,-0.029 0.428,-0.063 0.639,-0.101 0.743,-0.125 1.433,-0.296 2.059,-0.496 v -0.704 c -0.692,0.241 -1.573,0.435 -2.57,0.569 -0.214,0.025 -0.43,0.053 -0.654,0.073 -0.75,0.076 -1.551,0.118 -2.388,0.118 -4.038,0 -7.312,-0.946 -7.312,-2.109 0,-1.032 2.567,-1.887 5.955,-2.072 0.226,-0.012 0.455,-0.02 0.69,-0.028 0.219,-0.004 0.44,-0.01 0.667,-0.01 2.254,0 4.274,0.297 5.612,0.758 0.355,0.123 0.657,0.26 0.907,0.401 v 0.725 0.178 0.032 0.491 c 0.143,-0.075 0.337,-0.223 0.453,-0.481 0,0 0.073,-0.158 0.216,-0.1 0.114,0.045 -0.056,0.599 -0.669,1.042 v 0.013 0.774 c 1.64,-0.681 2.658,-1.617 2.658,-2.649 m -5.183,4.036 -0.234,-0.009 -0.144,0.46 -0.947,3.061 -2.599,4.737 5.548,0.182 -0.003,-5.146 v -1.062 -2.136 z m 1.621,-0.348 -0.003,-0.275 c -0.276,0.086 -0.566,0.166 -0.863,0.241 z m -3.836,-2.319 c -0.159,0.04 -0.364,0.075 -0.629,0.101 -0.289,0.03 -0.647,0.047 -1.059,0.047 -2.968,0 -5.448,-0.551 -6.095,-1.288 -0.334,0.203 -0.521,0.427 -0.521,0.664 0,0.941 2.923,1.701 6.525,1.701 0.717,0 1.404,-0.03 2.046,-0.085 0.227,-0.017 0.445,-0.043 0.661,-0.068 1.214,-0.146 2.231,-0.385 2.905,-0.685 v -1.726 c -1.132,-0.502 -3.218,-0.839 -5.612,-0.839 -0.096,0 -0.189,0.004 -0.282,0.006 -0.239,0.003 -0.473,0.007 -0.706,0.015 -1.252,0.051 -2.39,0.193 -3.302,0.402 -0.387,0.128 -0.608,0.27 -0.608,0.423 0,0.514 2.487,0.936 5.64,0.974 0.151,0.003 0.3,0.006 0.45,0.006 0.101,0 0.192,0 0.278,0.004 0.784,0.03 0.86,0.214 0.309,0.348 m 6.952,0.43 c -0.548,0.491 -1.298,0.929 -2.212,1.294 v 0.624 l 3.949,0.141 z m 1.191,7.131 0.964,-4.528 -4.367,-0.232 v 3.444 1.134 3.748 l 0.725,0.026 0.455,0.012 0.899,-1.452 z m 5.678,3.121 -6.31,-0.186 1.437,2.924 6.544,0.091 z m 0.048,7.284 1.575,-3.99 -6.262,-0.045 -0.553,0.877 -1.677,2.65 -2.21,2.559 -0.002,-8.298 0.01,-0.083 h -0.01 v 0.083 l -0.901,0.715 v -0.821 l -5.835,-0.146 c 0.896,1.395 1.746,2.864 2.549,4.395 l 3.152,-3.323 0.134,-0.105 0.002,8.625 0.901,-1.042 0.02,1.156 6.555,-0.28 z m 4.918,5.431 -6.239,0.139 h -0.026 l 0.992,3.507 0.027,0.115 6.034,-0.466 z m -2.32,6.915 2.783,-2.97 -5.6,0.275 -0.109,0.004 -0.488,0.491 -2.107,2.107 -3.763,2.369 7.242,-0.746 z m 1.029,6.051 -2.256,0.437 0.527,0.295 3.453,-0.617 z m 4.243,0.322 -6.235,0.818 0.412,3.689 6.41,-1.054 z m -2.928,5.852 2.695,-1.697 -5.59,0.82 -2.959,2.283 3.073,-0.41 z" />
              </g>
              <g
                 transform="translate(336.35286,582.37267)"
                 id="g7925"
                 style="fill:#6c1d45;fill-opacity:1">
                <path
                   inkscape:connector-curvature="0"
                   id="path7923"
                   style="fill:#6c1d45;fill-opacity:1;fill-rule:nonzero;stroke:none"
                   d="M 0,0 0.955,0.081 1.545,0.989 0.59,0.908 Z" />
              </g>
              <g
                 transform="translate(275.49186,564.76777)"
                 id="g7929"
                 style="fill:#6c1d45;fill-opacity:1">
                <path
                   inkscape:connector-curvature="0"
                   id="path7927"
                   style="fill:#6c1d45;fill-opacity:1;fill-rule:nonzero;stroke:none"
                   d="m 0,0 0.016,6.51 -0.304,0.047 -0.539,0.134 -0.024,-7.36 0.179,0.231 z" />
              </g>
              <g
                 transform="translate(277.76926,580.33607)"
                 id="g7933"
                 style="fill:#6c1d45;fill-opacity:1">
                <path
                   inkscape:connector-curvature="0"
                   id="path7931"
                   style="fill:#6c1d45;fill-opacity:1;fill-rule:nonzero;stroke:none"
                   d="m 0,0 -0.713,-0.869 h 0.707 C -0.004,-0.579 -0.004,-0.29 0,0" />
              </g>
              <g
                 transform="translate(272.68596,561.55917)"
                 id="g7937"
                 style="fill:#6c1d45;fill-opacity:1">
                <path
                   inkscape:connector-curvature="0"
                   id="path7935"
                   style="fill:#6c1d45;fill-opacity:1;fill-rule:nonzero;stroke:none"
                   d="M 0,0 0.982,-3.881 1.934,-4.143 1.954,2.54 Z" />
              </g>
              <g
                 transform="translate(277.05576,579.46697)"
                 id="g7941"
                 style="fill:#6c1d45;fill-opacity:1">
                <path
                   inkscape:connector-curvature="0"
                   id="path7939"
                   style="fill:#6c1d45;fill-opacity:1;fill-rule:nonzero;stroke:none"
                   d="m 0,0 h -0.233 l -4.946,-3.11 0.084,-4.221 2.704,-0.677 0.016,5.134 z" />
              </g>
              <g
                 transform="translate(335.30776,555.66867)"
                 id="g7945"
                 style="fill:#6c1d45;fill-opacity:1">
                <path
                   inkscape:connector-curvature="0"
                   id="path7943"
                   style="fill:#6c1d45;fill-opacity:1;fill-rule:nonzero;stroke:none"
                   d="M 0,0 C 0.307,0.806 0.604,1.624 0.889,2.462 L 0.722,24.303 -0.182,24.221 Z" />
              </g>
              <g
                 transform="translate(293.41266,651.39167)"
                 id="g7949"
                 style="fill:#6c1d45;fill-opacity:1">
                <path
                   inkscape:connector-curvature="0"
                   id="path7947"
                   style="fill:#6c1d45;fill-opacity:1;fill-rule:nonzero;stroke:none"
                   d="m 0,0 -4.073,-1.687 v -9.865 L 0,-10.117 Z" />
              </g>
              <g
                 transform="translate(293.41266,606.12377)"
                 id="g7953"
                 style="fill:#6c1d45;fill-opacity:1">
                <path
                   inkscape:connector-curvature="0"
                   id="path7951"
                   style="fill:#6c1d45;fill-opacity:1;fill-rule:nonzero;stroke:none"
                   d="M 0,0 -4.073,-0.857 V -11.195 L 0,-10.528 Z" />
              </g>
              <g
                 transform="translate(293.41266,617.36327)"
                 id="g7957"
                 style="fill:#6c1d45;fill-opacity:1">
                <path
                   inkscape:connector-curvature="0"
                   id="path7955"
                   style="fill:#6c1d45;fill-opacity:1;fill-rule:nonzero;stroke:none"
                   d="M 0,0 -4.073,-1.044 V -11.159 L 0,-10.302 Z" />
              </g>
              <g
                 transform="translate(293.41266,640.33647)"
                 id="g7961"
                 style="fill:#6c1d45;fill-opacity:1">
                <path
                   inkscape:connector-curvature="0"
                   id="path7959"
                   style="fill:#6c1d45;fill-opacity:1;fill-rule:nonzero;stroke:none"
                   d="M 0,0 -4.073,-1.432 V -11.676 L 0,-10.429 Z" />
              </g>
              <g
                 transform="translate(293.41266,628.97147)"
                 id="g7965"
                 style="fill:#6c1d45;fill-opacity:1">
                <path
                   inkscape:connector-curvature="0"
                   id="path7963"
                   style="fill:#6c1d45;fill-opacity:1;fill-rule:nonzero;stroke:none"
                   d="M 0,0 -4.073,-1.249 V -11.714 L 0,-10.672 Z" />
              </g>
              <g
                 transform="translate(288.37436,616.07337)"
                 id="g7969"
                 style="fill:#6c1d45;fill-opacity:1">
                <path
                   inkscape:connector-curvature="0"
                   id="path7967"
                   style="fill:#6c1d45;fill-opacity:1;fill-rule:nonzero;stroke:none"
                   d="m 0,0 -3.486,-0.894 v -9.914 L 0,-10.073 Z" />
              </g>
              <g
                 transform="translate(288.37436,627.42767)"
                 id="g7973"
                 style="fill:#6c1d45;fill-opacity:1">
                <path
                   inkscape:connector-curvature="0"
                   id="path7971"
                   style="fill:#6c1d45;fill-opacity:1;fill-rule:nonzero;stroke:none"
                   d="M 0,0 -3.486,-1.068 V -11.311 L 0,-10.418 Z" />
              </g>
              <g
                 transform="translate(288.37436,605.06237)"
                 id="g7977"
                 style="fill:#6c1d45;fill-opacity:1">
                <path
                   inkscape:connector-curvature="0"
                   id="path7975"
                   style="fill:#6c1d45;fill-opacity:1;fill-rule:nonzero;stroke:none"
                   d="M 0,0 -3.486,-0.734 V -10.862 L 0,-10.292 Z" />
              </g>
              <g
                 transform="translate(288.37436,638.56417)"
                 id="g7981"
                 style="fill:#6c1d45;fill-opacity:1">
                <path
                   inkscape:connector-curvature="0"
                   id="path7979"
                   style="fill:#6c1d45;fill-opacity:1;fill-rule:nonzero;stroke:none"
                   d="M 0,0 -3.486,-1.229 V -11.267 L 0,-10.199 Z" />
              </g>
              <g
                 transform="translate(288.37436,649.30387)"
                 id="g7985"
                 style="fill:#6c1d45;fill-opacity:1">
                <path
                   inkscape:connector-curvature="0"
                   id="path7983"
                   style="fill:#6c1d45;fill-opacity:1;fill-rule:nonzero;stroke:none"
                   d="M 0,0 -3.486,-1.445 V -11.03 L 0,-9.803 Z" />
              </g>
              <g
                 transform="translate(283.92316,614.93157)"
                 id="g7989"
                 style="fill:#6c1d45;fill-opacity:1">
                <path
                   inkscape:connector-curvature="0"
                   id="path7987"
                   style="fill:#6c1d45;fill-opacity:1;fill-rule:nonzero;stroke:none"
                   d="m 0,0 -3.928,-1.005 v -9.691 L 0,-9.869 Z" />
              </g>
              <g
                 transform="translate(283.92316,636.99537)"
                 id="g7993"
                 style="fill:#6c1d45;fill-opacity:1">
                <path
                   inkscape:connector-curvature="0"
                   id="path7991"
                   style="fill:#6c1d45;fill-opacity:1;fill-rule:nonzero;stroke:none"
                   d="m 0,0 -3.928,-1.381 v -9.816 L 0,-9.993 Z" />
              </g>
              <g
                 transform="translate(283.92316,604.12507)"
                 id="g7997"
                 style="fill:#6c1d45;fill-opacity:1">
                <path
                   inkscape:connector-curvature="0"
                   id="path7995"
                   style="fill:#6c1d45;fill-opacity:1;fill-rule:nonzero;stroke:none"
                   d="m 0,0 -3.928,-0.828 v -9.896 L 0,-10.083 Z" />
              </g>
              <g
                 transform="translate(283.92316,647.45947)"
                 id="g8001"
                 style="fill:#6c1d45;fill-opacity:1">
                <path
                   inkscape:connector-curvature="0"
                   id="path7999"
                   style="fill:#6c1d45;fill-opacity:1;fill-rule:nonzero;stroke:none"
                   d="m 0,0 -3.928,-1.629 v -9.28 L 0,-9.526 Z" />
              </g>
              <g
                 transform="translate(283.92316,626.06487)"
                 id="g8005"
                 style="fill:#6c1d45;fill-opacity:1">
                <path
                   inkscape:connector-curvature="0"
                   id="path8003"
                   style="fill:#6c1d45;fill-opacity:1;fill-rule:nonzero;stroke:none"
                   d="m 0,0 -3.928,-1.204 v -9.998 L 0,-10.197 Z" />
              </g>
              <g
                 transform="translate(299.70986,607.45147)"
                 id="g8009"
                 style="fill:#6c1d45;fill-opacity:1">
                <path
                   inkscape:connector-curvature="0"
                   id="path8007"
                   style="fill:#6c1d45;fill-opacity:1;fill-rule:nonzero;stroke:none"
                   d="M 0,0 -5.332,-1.124 V -11.697 L 0,-10.824 Z" />
              </g>
              <g
                 transform="translate(300.78126,594.88337)"
                 id="g8013"
                 style="fill:#6c1d45;fill-opacity:1">
                <path
                   inkscape:connector-curvature="0"
                   id="path8011"
                   style="fill:#6c1d45;fill-opacity:1;fill-rule:nonzero;stroke:none"
                   d="m 0,0 4.828,-8.28 4.238,9.622 z m 2.484,-0.255 v -2.78 l -1.492,2.559 z m 2.269,-6.671 -0.455,0.78 v 0.401 c 0,0.113 -0.092,0.203 -0.203,0.203 -0.047,0 -0.088,-0.017 -0.123,-0.045 l -0.84,1.443 v 3.983 l 0.76,0.115 v -4.009 c 0,-0.113 0.091,-0.202 0.203,-0.202 0.111,0 0.203,0.089 0.203,0.202 V 0.013 L 6.701,0.37 v -2.866 z" />
              </g>
              <g
                 transform="translate(276.78706,583.00867)"
                 id="g8017"
                 style="fill:#6c1d45;fill-opacity:1">
                <path
                   inkscape:connector-curvature="0"
                   id="path8015"
                   style="fill:#6c1d45;fill-opacity:1;fill-rule:nonzero;stroke:none"
                   d="M 0,0 27.926,2.963 13.844,7.08 Z M 7.136,2.958 8.101,3.451 V 1.48 L 7.136,1.377 Z m 4.451,2.275 0.966,0.493 V 1.951 l -0.966,-0.1 z m 5.039,0.39 0.965,-0.282 V 2.484 l -0.965,-0.1 z m 6.297,-2.572 v 0.73 l 1.833,-0.536 z" />
              </g>
              <g
                 transform="translate(320.80386,594.42097)"
                 id="g8021"
                 style="fill:#6c1d45;fill-opacity:1">
                <path
                   inkscape:connector-curvature="0"
                   id="path8019"
                   style="fill:#6c1d45;fill-opacity:1;fill-rule:nonzero;stroke:none"
                   d="m 0,0 -9.118,2.078 -0.977,-0.144 -4.028,-9.148 z m -8.937,1.404 0.231,-0.543 c 0,0 1.168,0.058 2.339,-0.042 l 1.518,-0.346 c 0.02,-0.114 0.207,-1.132 1.012,-1.739 l -1.341,-0.685 c -1.431,1.248 -3.17,2.001 -5.055,2.039 l 0.056,0.128 0.801,0.35 c 0,0 -0.165,0.508 -0.271,0.811 l 0.506,0.074 z" />
              </g>
              <g
                 transform="translate(299.98956,594.76567)"
                 id="g8025"
                 style="fill:#6c1d45;fill-opacity:1">
                <path
                   inkscape:connector-curvature="0"
                   id="path8023"
                   style="fill:#6c1d45;fill-opacity:1;fill-rule:nonzero;stroke:none"
                   d="M 0,0 -0.297,-0.043 -8.392,-4.183 4.67,-8.007 Z m 3.357,-6.98 -3.637,1.065 v 5.168 z m -9.934,3.034 0.965,0.49 v -0.898 l -0.965,0.282 z" />
              </g>
              <g
                 transform="translate(321.92476,594.16607)"
                 id="g8029"
                 style="fill:#6c1d45;fill-opacity:1">
                <path
                   inkscape:connector-curvature="0"
                   id="path8027"
                   style="fill:#6c1d45;fill-opacity:1;fill-rule:nonzero;stroke:none"
                   d="m 0,0 -15.71,-8.036 34.788,3.69 z m -4.837,-3.168 2.938,1.502 c 0.468,-0.805 0.881,-1.671 1.223,-2.587 0.183,-0.491 0.338,-0.999 0.477,-1.518 L -3.34,-6.106 c -0.383,1.08 -0.887,2.069 -1.497,2.938 m 7.695,1.885 0.792,-0.18 C 4.333,-2.597 4.886,-3.842 5.272,-5.189 L 4.668,-5.255 c -0.417,1.45 -1.033,2.779 -1.81,3.972 m 4.573,-1.042 7.897,-1.799 -7.017,-0.745 c -0.238,0.873 -0.533,1.721 -0.88,2.544" />
              </g>
              <g
                 transform="translate(299.23976,583.94527)"
                 id="g8033"
                 style="fill:#6c1d45;fill-opacity:1">
                <path
                   inkscape:connector-curvature="0"
                   id="path8031"
                   style="fill:#6c1d45;fill-opacity:1;fill-rule:nonzero;stroke:none"
                   d="m 0,0 c -0.195,0 -0.355,-0.123 -0.355,-0.274 0,-0.151 0.16,-0.274 0.355,-0.274 0.196,0 0.353,0.123 0.353,0.274 C 0.353,-0.123 0.196,0 0,0" />
              </g>
              <g
                 transform="translate(319.30636,564.34327)"
                 id="g8037"
                 style="fill:#6c1d45;fill-opacity:1">
                <path
                   inkscape:connector-curvature="0"
                   id="path8035"
                   style="fill:#6c1d45;fill-opacity:1;fill-rule:nonzero;stroke:none"
                   d="M 0,0 C 0.157,0.12 0.2,0.327 0.098,0.458 -0.006,0.588 -0.217,0.597 -0.373,0.473 -0.53,0.349 -0.576,0.143 -0.473,0.015 -0.37,-0.118 -0.16,-0.126 0,0" />
              </g>
              <g
                 transform="translate(319.14226,563.42147)"
                 id="g8041"
                 style="fill:#6c1d45;fill-opacity:1">
                <path
                   inkscape:connector-curvature="0"
                   id="path8039"
                   style="fill:#6c1d45;fill-opacity:1;fill-rule:nonzero;stroke:none"
                   d="M 0,0 C 0.029,-0.04 0.067,-0.07 0.107,-0.095 0.067,-0.234 0.087,-0.397 0.19,-0.525 0.355,-0.737 0.646,-0.785 0.841,-0.631 1.036,-0.48 1.06,-0.186 0.895,0.023 0.828,0.109 0.741,0.159 0.648,0.187 0.653,0.277 0.629,0.368 0.569,0.446 0.441,0.607 0.209,0.64 0.053,0.517 -0.105,0.396 -0.129,0.161 0,0" />
              </g>
              <g
                 transform="translate(300.28626,575.90807)"
                 id="g8045"
                 style="fill:#6c1d45;fill-opacity:1">
                <path
                   inkscape:connector-curvature="0"
                   id="path8043"
                   style="fill:#6c1d45;fill-opacity:1;fill-rule:nonzero;stroke:none"
                   d="m 0,0 c -0.26,-0.118 -0.358,-0.462 -0.216,-0.77 0.138,-0.31 0.462,-0.463 0.722,-0.348 0.26,0.122 0.357,0.464 0.217,0.773 C 0.584,-0.035 0.259,0.119 0,0" />
              </g>
              <g
                 transform="translate(301.21736,574.76317)"
                 id="g8049"
                 style="fill:#6c1d45;fill-opacity:1">
                <path
                   inkscape:connector-curvature="0"
                   id="path8047"
                   style="fill:#6c1d45;fill-opacity:1;fill-rule:nonzero;stroke:none"
                   d="M 0,0 C -0.148,-0.113 -0.154,-0.354 -0.012,-0.534 0.126,-0.713 0.36,-0.763 0.507,-0.649 0.655,-0.534 0.661,-0.294 0.52,-0.113 0.379,0.063 0.146,0.116 0,0" />
              </g>
              <g
                 transform="translate(301.44126,573.50677)"
                 id="g8053"
                 style="fill:#6c1d45;fill-opacity:1">
                <path
                   inkscape:connector-curvature="0"
                   id="path8051"
                   style="fill:#6c1d45;fill-opacity:1;fill-rule:nonzero;stroke:none"
                   d="M 0,0 C -0.168,-0.13 -0.129,-0.462 0.087,-0.737 0.304,-1.016 0.618,-1.135 0.789,-1.001 0.956,-0.868 0.917,-0.538 0.7,-0.259 0.483,0.019 0.17,0.134 0,0" />
              </g>
              <g
                 transform="translate(306.08766,571.05107)"
                 id="g8057"
                 style="fill:#6c1d45;fill-opacity:1">
                <path
                   inkscape:connector-curvature="0"
                   id="path8055"
                   style="fill:#6c1d45;fill-opacity:1;fill-rule:nonzero;stroke:none"
                   d="M 0,0 C 0.113,0.085 0.113,0.274 0.003,0.418 -0.109,0.559 -0.291,0.603 -0.405,0.515 -0.519,0.425 -0.521,0.236 -0.409,0.095 -0.297,-0.046 -0.115,-0.091 0,0" />
              </g>
              <g
                 transform="translate(307.83226,570.98757)"
                 id="g8061"
                 style="fill:#6c1d45;fill-opacity:1">
                <path
                   inkscape:connector-curvature="0"
                   id="path8059"
                   style="fill:#6c1d45;fill-opacity:1;fill-rule:nonzero;stroke:none"
                   d="M 0,0 C 0.103,0.081 0.11,0.245 0.015,0.368 -0.081,0.488 -0.242,0.521 -0.344,0.441 -0.449,0.357 -0.456,0.194 -0.359,0.073 -0.266,-0.047 -0.105,-0.081 0,0" />
              </g>
              <g
                 transform="translate(312.30196,568.75807)"
                 id="g8065"
                 style="fill:#6c1d45;fill-opacity:1">
                <path
                   inkscape:connector-curvature="0"
                   id="path8063"
                   style="fill:#6c1d45;fill-opacity:1;fill-rule:nonzero;stroke:none"
                   d="M 0,0 C 0.084,0.065 0.072,0.219 -0.026,0.344 -0.122,0.47 -0.27,0.515 -0.355,0.45 -0.438,0.385 -0.429,0.229 -0.331,0.106 -0.232,-0.02 -0.085,-0.068 0,0" />
              </g>
              <g
                 transform="translate(315.59586,567.63487)"
                 id="g8069"
                 style="fill:#6c1d45;fill-opacity:1">
                <path
                   inkscape:connector-curvature="0"
                   id="path8067"
                   style="fill:#6c1d45;fill-opacity:1;fill-rule:nonzero;stroke:none"
                   d="M 0,0 C 0.064,0.048 0.071,0.143 0.019,0.211 -0.034,0.28 -0.129,0.294 -0.193,0.247 -0.256,0.197 -0.264,0.101 -0.211,0.033 -0.157,-0.035 -0.064,-0.05 0,0" />
              </g>
              <g
                 transform="translate(314.25956,567.14137)"
                 id="g8073"
                 style="fill:#6c1d45;fill-opacity:1">
                <path
                   inkscape:connector-curvature="0"
                   id="path8071"
                   style="fill:#6c1d45;fill-opacity:1;fill-rule:nonzero;stroke:none"
                   d="M 0,0 C 0.206,0.219 0.146,0.612 -0.132,0.876 -0.413,1.14 -0.807,1.176 -1.013,0.959 -1.22,0.738 -1.162,0.345 -0.882,0.084 -0.603,-0.181 -0.208,-0.219 0,0" />
              </g>
              <g
                 transform="translate(305.20686,582.03727)"
                 id="g8077"
                 style="fill:#6c1d45;fill-opacity:1">
                <path
                   inkscape:connector-curvature="0"
                   id="path8075"
                   style="fill:#6c1d45;fill-opacity:1;fill-rule:nonzero;stroke:none"
                   d="M 0,0 C 0.128,0 0.232,0.078 0.232,0.174 0.232,0.272 0.128,0.35 0,0.35 -0.126,0.35 -0.229,0.272 -0.229,0.174 -0.229,0.078 -0.126,0 0,0" />
              </g>
              <g
                 transform="translate(300.39856,581.86847)"
                 id="g8081"
                 style="fill:#6c1d45;fill-opacity:1">
                <path
                   inkscape:connector-curvature="0"
                   id="path8079"
                   style="fill:#6c1d45;fill-opacity:1;fill-rule:nonzero;stroke:none"
                   d="m 0,0 c -0.096,0 -0.175,-0.058 -0.175,-0.133 0,-0.075 0.079,-0.133 0.175,-0.133 0.095,0 0.175,0.058 0.175,0.133 C 0.175,-0.058 0.095,0 0,0" />
              </g>
              <g
                 transform="translate(307.34496,582.15577)"
                 id="g8085"
                 style="fill:#6c1d45;fill-opacity:1">
                <path
                   inkscape:connector-curvature="0"
                   id="path8083"
                   style="fill:#6c1d45;fill-opacity:1;fill-rule:nonzero;stroke:none"
                   d="M 0,0 C 0.112,0 0.203,0.073 0.203,0.163 0.203,0.252 0.112,0.322 0,0.322 -0.113,0.322 -0.202,0.252 -0.202,0.163 -0.202,0.073 -0.113,0 0,0" />
              </g>
              <g
                 transform="translate(309.99656,579.85277)"
                 id="g8089"
                 style="fill:#6c1d45;fill-opacity:1">
                <path
                   inkscape:connector-curvature="0"
                   id="path8087"
                   style="fill:#6c1d45;fill-opacity:1;fill-rule:nonzero;stroke:none"
                   d="M 0,0 C 0.153,0 0.279,0.093 0.279,0.209 0.279,0.327 0.153,0.422 0,0.422 -0.152,0.422 -0.277,0.327 -0.277,0.209 -0.277,0.093 -0.152,0 0,0" />
              </g>
              <g
                 transform="translate(308.98716,580.35317)"
                 id="g8093"
                 style="fill:#6c1d45;fill-opacity:1">
                <path
                   inkscape:connector-curvature="0"
                   id="path8091"
                   style="fill:#6c1d45;fill-opacity:1;fill-rule:nonzero;stroke:none"
                   d="m 0,0 c -0.02,0.005 -0.043,0.013 -0.065,0.013 -0.114,0 -0.207,-0.083 -0.207,-0.183 0,-0.104 0.093,-0.184 0.207,-0.184 0.098,0 0.179,0.063 0.197,0.148 0.073,0.008 0.131,0.06 0.131,0.126 0,0.07 -0.067,0.126 -0.149,0.126 C 0.068,0.046 0.028,0.028 0,0" />
              </g>
              <g
                 transform="translate(308.77956,581.09847)"
                 id="g8097"
                 style="fill:#6c1d45;fill-opacity:1">
                <path
                   inkscape:connector-curvature="0"
                   id="path8095"
                   style="fill:#6c1d45;fill-opacity:1;fill-rule:nonzero;stroke:none"
                   d="M 0,0 C 0.134,0 0.241,0.078 0.241,0.171 0.241,0.272 0.134,0.348 0,0.348 -0.133,0.348 -0.241,0.272 -0.241,0.171 -0.241,0.078 -0.133,0 0,0" />
              </g>
              <g
                 transform="translate(306.31306,581.74757)"
                 id="g8101"
                 style="fill:#6c1d45;fill-opacity:1">
                <path
                   inkscape:connector-curvature="0"
                   id="path8099"
                   style="fill:#6c1d45;fill-opacity:1;fill-rule:nonzero;stroke:none"
                   d="m 0,0 c 0.019,-0.072 0.098,-0.129 0.195,-0.129 0.113,0 0.202,0.072 0.202,0.161 0,0.059 -0.041,0.107 -0.099,0.135 0.002,0.01 0.008,0.019 0.008,0.03 0,0.114 -0.118,0.201 -0.26,0.201 -0.144,0 -0.26,-0.087 -0.26,-0.201 C -0.214,0.095 -0.12,0.018 0,0" />
              </g>
              <g
                 transform="translate(303.63126,582.47027)"
                 id="g8105"
                 style="fill:#6c1d45;fill-opacity:1">
                <path
                   inkscape:connector-curvature="0"
                   id="path8103"
                   style="fill:#6c1d45;fill-opacity:1;fill-rule:nonzero;stroke:none"
                   d="M 0,0 C 0.117,0 0.211,0.081 0.211,0.184 0.211,0.284 0.117,0.368 0,0.368 -0.117,0.368 -0.212,0.284 -0.212,0.184 -0.212,0.081 -0.117,0 0,0" />
              </g>
              <g
                 transform="translate(291.71156,558.83857)"
                 id="g8109"
                 style="fill:#6c1d45;fill-opacity:1">
                <path
                   inkscape:connector-curvature="0"
                   id="path8107"
                   style="fill:#6c1d45;fill-opacity:1;fill-rule:nonzero;stroke:none"
                   d="M 0,0 C 0.104,0 0.186,0.143 0.186,0.317 0.186,0.491 0.104,0.631 0,0.631 -0.101,0.631 -0.186,0.491 -0.186,0.317 -0.186,0.143 -0.101,0 0,0" />
              </g>
              <g
                 transform="translate(293.09356,555.96387)"
                 id="g8113"
                 style="fill:#6c1d45;fill-opacity:1">
                <path
                   inkscape:connector-curvature="0"
                   id="path8111"
                   style="fill:#6c1d45;fill-opacity:1;fill-rule:nonzero;stroke:none"
                   d="M 0,0 C 0.144,0 0.26,0.141 0.26,0.317 0.26,0.491 0.144,0.631 0,0.631 -0.143,0.631 -0.259,0.491 -0.259,0.317 -0.259,0.141 -0.143,0 0,0" />
              </g>
              <g
                 transform="translate(293.81396,555.96147)"
                 id="g8117"
                 style="fill:#6c1d45;fill-opacity:1">
                <path
                   inkscape:connector-curvature="0"
                   id="path8115"
                   style="fill:#6c1d45;fill-opacity:1;fill-rule:nonzero;stroke:none"
                   d="M 0,0 C 0.084,0 0.153,0.105 0.153,0.234 0.153,0.367 0.084,0.47 0,0.47 -0.085,0.47 -0.155,0.367 -0.155,0.234 -0.155,0.105 -0.085,0 0,0" />
              </g>
              <g
                 transform="translate(304.87606,579.40657)"
                 id="g8121"
                 style="fill:#6c1d45;fill-opacity:1">
                <path
                   inkscape:connector-curvature="0"
                   id="path8119"
                   style="fill:#6c1d45;fill-opacity:1;fill-rule:nonzero;stroke:none"
                   d="m 0,0 c -0.112,0 -0.203,-0.09 -0.203,-0.203 v -0.355 c 0,-0.113 0.091,-0.204 0.203,-0.204 0.112,0 0.203,0.091 0.203,0.204 v 0.355 C 0.203,-0.09 0.112,0 0,0" />
              </g>
              <g
                 transform="translate(304.87606,578.43047)"
                 id="g8125"
                 style="fill:#6c1d45;fill-opacity:1">
                <path
                   inkscape:connector-curvature="0"
                   id="path8123"
                   style="fill:#6c1d45;fill-opacity:1;fill-rule:nonzero;stroke:none"
                   d="m 0,0 c -0.112,0 -0.203,-0.091 -0.203,-0.201 v -0.182 c 0,-0.11 0.091,-0.201 0.203,-0.201 0.112,0 0.203,0.091 0.203,0.201 v 0.182 C 0.203,-0.091 0.112,0 0,0" />
              </g>
              <g
                 transform="translate(304.87606,577.60237)"
                 id="g8129"
                 style="fill:#6c1d45;fill-opacity:1">
                <path
                   inkscape:connector-curvature="0"
                   id="path8127"
                   style="fill:#6c1d45;fill-opacity:1;fill-rule:nonzero;stroke:none"
                   d="m 0,0 c -0.112,0 -0.203,-0.091 -0.203,-0.204 v -0.179 c 0,-0.113 0.091,-0.2 0.203,-0.2 0.112,0 0.203,0.087 0.203,0.2 v 0.179 C 0.203,-0.091 0.112,0 0,0" />
              </g>
              <g
                 transform="translate(304.87606,598.79387)"
                 id="g8133"
                 style="fill:#6c1d45;fill-opacity:1">
                <path
                   inkscape:connector-curvature="0"
                   id="path8131"
                   style="fill:#6c1d45;fill-opacity:1;fill-rule:nonzero;stroke:none"
                   d="M 0,0 C 0.112,0 0.203,0.092 0.203,0.203 V 1.447 C 0.203,1.559 0.112,1.65 0,1.65 -0.112,1.65 -0.203,1.559 -0.203,1.447 V 0.203 C -0.203,0.092 -0.112,0 0,0" />
              </g>
            </g>
          </g>
        </g>
      </g>
    </g>
  </g>
</svg>
